<?xml version="1.0" encoding="UTF-8"?>
<svg version="1.1" xmlns="http://www.w3.org/2000/svg" width="257" height="331">
<path d="M0 0 C84.81 0 169.62 0 257 0 C257 109.23 257 218.46 257 331 C172.19 331 87.38 331 0 331 C0 221.77 0 112.54 0 0 Z " fill="#FCFEFE" transform="translate(0,0)"/>
<path d="M0 0 C32.87831969 -0.16121214 32.87831969 -0.16121214 46.75390625 -0.1953125 C56.2997303 -0.21896186 65.84541218 -0.24662224 75.39111328 -0.30175781 C82.34607378 -0.34190987 89.3009179 -0.3674994 96.2559911 -0.37635398 C99.93100929 -0.38152133 103.60569487 -0.39346844 107.28060532 -0.42292023 C138.70910516 -0.66476684 165.45967581 4.06974003 190 25 C190.74894531 25.60328125 191.49789062 26.2065625 192.26953125 26.828125 C208.09973008 40.02457796 217.5607841 58.43884442 223 78 C223.19505127 78.66781494 223.39010254 79.33562988 223.59106445 80.02368164 C225.45824168 87.18746002 225.44292866 94.44947066 225.4375 101.8125 C225.4375705 102.49807983 225.43764099 103.18365967 225.43771362 103.89001465 C225.33888788 128.95163839 217.31536559 150.91047292 201 170 C200.16082031 171.08087891 200.16082031 171.08087891 199.3046875 172.18359375 C189.11070425 184.9132663 173.912146 193.93514003 158.9375 199.75 C157.88719604 200.17297363 157.88719604 200.17297363 156.81567383 200.60449219 C140.15109139 206.72416116 122.21600062 206.41614288 104.73828125 206.29296875 C102.3664731 206.28735824 99.99466142 206.28309504 97.62284851 206.28010559 C91.44654366 206.26877127 85.27045788 206.2394052 79.09423828 206.20599365 C72.76532961 206.1750437 66.43638477 206.16154752 60.10742188 206.14648438 C47.73818615 206.11452223 35.36911145 206.06346775 23 206 C25.20816175 202.11096624 27.37712551 198.29917909 29.9609375 194.64453125 C30.50830566 193.86674316 31.05567383 193.08895508 31.61962891 192.28759766 C32.19890137 191.47081543 32.77817383 190.6540332 33.375 189.8125 C34.61985602 188.04561826 35.86464566 186.27868974 37.109375 184.51171875 C37.74810547 183.60728027 38.38683594 182.7028418 39.04492188 181.77099609 C42.24895925 177.22980925 45.43698001 172.67743832 48.625 168.125 C49.20427246 167.2997583 49.78354492 166.4745166 50.38037109 165.62426758 C50.92773926 164.8433374 51.47510742 164.06240723 52.0390625 163.2578125 C52.51553223 162.5786377 52.99200195 161.89946289 53.48291016 161.19970703 C55.1582924 158.9311183 55.1582924 158.9311183 56.35302734 155.77758789 C59.51732343 152.45714917 60.41953988 152.53238924 64.86328125 152.2746582 C67.34628265 152.25389814 69.82967289 152.26477454 72.3125 152.30078125 C74.32987618 152.29070638 76.34725241 152.28061617 78.36462402 152.26966381 C81.19407413 152.26153087 84.02309932 152.28034186 86.85247803 152.29931641 C92.44644081 152.33365763 98.04014241 152.32761673 103.63412476 152.3031826 C105.57032645 152.3008472 107.50651813 152.31934886 109.44262695 152.3384552 C125.7894665 152.33266067 138.84794944 147.74957264 150.77734375 136.40625 C160.1184224 126.29358841 163.61726156 113.62124975 163.40234375 100.10083008 C162.86868865 86.73974371 157.16397174 75.14120839 147.421875 66.00390625 C137.38785197 57.70156139 126.39506866 53.97384482 113.44384766 53.79467773 C112.16297272 53.77473251 110.88209778 53.75478729 109.56240845 53.73423767 C108.17962766 53.71725854 106.79684565 53.70037955 105.4140625 53.68359375 C103.98773632 53.66299945 102.56141591 53.64200236 101.13510132 53.62062073 C97.3967966 53.56565556 93.65843915 53.51613457 89.92004395 53.46777344 C86.09899247 53.41737076 82.27801674 53.36178305 78.45703125 53.30664062 C70.97141676 53.19937203 63.4857381 53.09833845 56 53 C56 59.93 56 66.86 56 74 C73.82 74 91.64 74 110 74 C108.40134619 77.99663453 107.00085351 80.71394202 104.625 84.1875 C103.9134375 85.23679687 103.201875 86.28609375 102.46875 87.3671875 C102.07558594 87.94436523 101.68242188 88.52154297 101.27734375 89.11621094 C98.87018999 92.66621063 96.50103161 96.24163144 94.125 99.8125 C93.09650444 101.35556892 92.06785854 102.89853765 91.0390625 104.44140625 C90.5327832 105.2008252 90.02650391 105.96024414 89.50488281 106.74267578 C85.66992188 112.49511719 81.83496094 118.24755859 78 124 C77.44499817 125.04266022 76.88999634 126.08532043 76.31817627 127.15957642 C74 130 74 130 70.70965576 130.7215271 C69.40393616 130.70820343 68.09821655 130.69487976 66.75292969 130.68115234 C66.01894581 130.68187555 65.28496193 130.68259876 64.52873611 130.68334389 C62.15866234 130.67887399 59.79144019 130.63324131 57.421875 130.5859375 C55.95655683 130.57711273 54.49121978 130.57099354 53.02587891 130.56762695 C47.60029698 130.53620466 42.17512029 130.45243645 36.75 130.375 C24.6225 130.25125 12.495 130.1275 0 130 C0 87.1 0 44.2 0 0 Z " fill="#2393D1" transform="translate(0,106)"/>
<path d="M0 0 C71.28 0 142.56 0 216 0 C214.52025451 3.69936372 213.35640307 6.20343354 211.19018555 9.38793945 C210.62587326 10.2226326 210.06156097 11.05732574 209.48014832 11.91731262 C208.87181656 12.80698227 208.2634848 13.69665192 207.63671875 14.61328125 C207.00772171 15.54166306 206.37872467 16.47004486 205.73066711 17.42655945 C203.72072014 20.39158331 201.70442037 23.35221632 199.6875 26.3125 C197.68243364 29.26282915 195.67873087 32.21407316 193.6764679 35.16630554 C192.43176083 37.00076679 191.18526602 38.83401676 189.93669128 40.66584778 C189.36292252 41.50999741 188.78915375 42.35414703 188.19799805 43.22387695 C187.69995163 43.95492142 187.20190521 44.68596588 186.68876648 45.43916321 C184.96905012 47.81843124 184.96905012 47.81843124 184.28913021 50.04603386 C183.16459367 52.72752933 182.26557222 54.14695955 180 56 C174.32580364 57.22768532 168.68947193 57.01051092 162.90893555 56.90820312 C161.13482262 56.90594614 159.36070221 56.90721398 157.58659363 56.91174316 C152.77233906 56.91403939 147.95967777 56.86699511 143.14579368 56.8111515 C138.11435247 56.76115353 133.08287505 56.75644269 128.05122375 56.74694824 C118.5241426 56.72207937 108.99779552 56.65642518 99.47103769 56.57615232 C88.62479906 56.48674463 77.77852543 56.4427501 66.93201005 56.40258884 C44.62083925 56.3189591 22.3106748 56.17224484 0 56 C0 37.52 0 19.04 0 0 Z " fill="#2393D1" transform="translate(0,25)"/>
<path d="M0 0 C71.28 0 142.56 0 216 0 C214.05372161 4.86569598 212.07915761 7.86744637 209 12 C207.75453595 9.50907189 208.2232422 8.58919267 209 6 C209.66 6 210.32 6 211 6 C211.33 4.68 211.66 3.36 212 2 C143.03 2 74.06 2 3 2 C2.67 19.16 2.34 36.32 2 54 C60.08 54 118.16 54 178 54 C178 52.68 178 51.36 178 50 C179.32 50.33 180.64 50.66 182 51 C181.34 52.65 180.68 54.3 180 56 C120.6 56 61.2 56 0 56 C0 37.52 0 19.04 0 0 Z " fill="#4C9ECA" transform="translate(0,25)"/>
<path d="M0 0 C32.87831969 -0.16121214 32.87831969 -0.16121214 46.75390625 -0.1953125 C56.2997303 -0.21896186 65.84541218 -0.24662224 75.39111328 -0.30175781 C82.34607378 -0.34190987 89.3009179 -0.3674994 96.2559911 -0.37635398 C99.93100929 -0.38152133 103.60569487 -0.39346844 107.28060532 -0.42292023 C125.10421261 -0.56018097 141.05130401 0.19287707 158 6 C158 6.33 158 6.66 158 7 C157.01 6.855625 156.02 6.71125 155 6.5625 C151.00590535 5.99074821 147.00467063 5.49180166 143 5 C143 4.34 143 3.68 143 3 C141.906875 3.020625 140.81375 3.04125 139.6875 3.0625 C136 3 136 3 133 2 C131.23650694 1.90956329 129.46974336 1.87804268 127.70393372 1.87974548 C126.05698769 1.87768349 126.05698769 1.87768349 124.37677002 1.87557983 C122.56955475 1.88097275 122.56955475 1.88097275 120.72583008 1.88647461 C118.8232267 1.88625557 118.8232267 1.88625557 116.88218689 1.8860321 C113.40312252 1.88574489 109.92409254 1.89162943 106.44503617 1.89860606 C102.80952519 1.90485215 99.17401344 1.9054444 95.53849792 1.90663147 C88.65372618 1.90974107 81.76897028 1.91794948 74.88420552 1.92798096 C65.58110756 1.9412422 56.27800527 1.946645 46.97490025 1.95248318 C32.31658828 1.9618896 17.65830979 1.981811 3 2 C3 43.25 3 84.5 3 127 C26.1 127.33 49.2 127.66 73 128 C73.99 126.02 73.99 126.02 75 124 C75.66 124.33 76.32 124.66 77 125 C75.94584656 127.46452332 75.94584656 127.46452332 74 130 C70.82991028 130.60127258 70.82991028 130.60127258 66.86645508 130.56762695 C66.13259173 130.56822963 65.39872839 130.5688323 64.64262676 130.56945324 C62.26749002 130.56572154 59.89431674 130.52765692 57.51953125 130.48828125 C56.05319157 130.48092952 54.58683882 130.47582881 53.1204834 130.47302246 C47.68428879 130.4468113 42.24837509 130.37700485 36.8125 130.3125 C18.5903125 130.1578125 18.5903125 130.1578125 0 130 C0 87.1 0 44.2 0 0 Z " fill="#57AAD6" transform="translate(0,106)"/>
<path d="M0 0 C11.30430641 10.41769414 17.08435662 25.44965204 21 40 C21.19215088 40.66346436 21.38430176 41.32692871 21.58227539 42.01049805 C23.45349097 49.18195891 23.43894344 56.4411931 23.4375 63.8125 C23.43959976 64.83688171 23.43959976 64.83688171 23.44174194 65.88195801 C23.41476887 81.92788929 20.68545127 96.74103509 13 111 C12.23729556 108.77093477 11.8220164 107.49245768 12.63671875 105.23828125 C12.98347656 104.60277344 13.33023438 103.96726562 13.6875 103.3125 C21.70546996 85.85671122 20.80714985 66.79125185 21 48 C20.34 48 19.68 48 19 48 C19 45.03 19 42.06 19 39 C18.34 39 17.68 39 17 39 C16.938125 37.906875 16.87625 36.81375 16.8125 35.6875 C15.39982323 24.78698057 7.89454331 12.41997273 1.2578125 3.71484375 C0 2 0 2 0 0 Z " fill="#4094C0" transform="translate(202,144)"/>
<path d="M0 0 C0.99 0.33 1.98 0.66 3 1 C2.34 2.65 1.68 4.3 1 6 C-58.07 6 -117.14 6 -178 6 C-178 5.67 -178 5.34 -178 5 C-119.26 5 -60.52 5 0 5 C0 3.35 0 1.7 0 0 Z " fill="#4390B9" transform="translate(179,75)"/>
<path d="M0 0 C-1.57208225 0.95624688 -3.15863498 1.88869912 -4.75 2.8125 C-5.63171875 3.33457031 -6.5134375 3.85664063 -7.421875 4.39453125 C-17.23729365 8.79861101 -26.88311696 9.42235946 -37.515625 9.29296875 C-38.86610436 9.28735611 -40.21658992 9.28309393 -41.56707764 9.28010559 C-45.07865005 9.26878765 -48.58983528 9.23943768 -52.10125732 9.20599365 C-55.70156623 9.17500676 -59.30193922 9.16153987 -62.90234375 9.14648438 C-69.93505182 9.11455159 -76.9675003 9.06351892 -84 9 C-84.33 9.99 -84.66 10.98 -85 12 C-85.33 11.01 -85.66 10.02 -86 9 C-83.03767697 6.03767697 -80.21720357 6.03479015 -76.12089539 5.91770935 C-75.06610489 5.93769485 -74.01131439 5.95768036 -72.92456055 5.97827148 C-71.72369308 5.99836777 -70.52282562 6.01846405 -69.28556824 6.03916931 C-67.99894791 6.06620438 -66.71232758 6.09323944 -65.38671875 6.12109375 C-64.04865863 6.14541699 -62.7105897 6.16925942 -61.37251282 6.19264221 C-57.86255799 6.25526406 -54.35276067 6.32439179 -50.84295654 6.39489746 C-47.25670502 6.46577962 -43.67034244 6.53047731 -40.08398438 6.59570312 C-33.05586899 6.72443282 -26.02790143 6.86003928 -19 7 C-19 6.34 -19 5.68 -19 5 C-17.35 5 -15.7 5 -14 5 C-14 4.34 -14 3.68 -14 3 C-11.36 2.67 -8.72 2.34 -6 2 C-6 1.34 -6 0.68 -6 0 C-3.50907189 -1.24546405 -2.58919267 -0.7767578 0 0 Z " fill="#C9ECFA" transform="translate(143,250)"/>
<path d="M0 0 C1.15249741 0.00222061 2.30499481 0.00444122 3.49241638 0.00672913 C5.4443264 0.00684242 5.4443264 0.00684242 7.43566895 0.00695801 C8.86661313 0.01206543 10.29755694 0.01728144 11.72850037 0.02259827 C13.18438672 0.02446249 14.64027369 0.02588637 16.09616089 0.02688599 C19.93488791 0.03071086 23.77357731 0.04054088 27.61228943 0.05158997 C31.52667227 0.06180474 35.44106117 0.06638375 39.35545349 0.07142639 C47.04101755 0.08216318 54.72655057 0.09923923 62.41209412 0.12025452 C62.41209412 0.78025452 62.41209412 1.44025452 62.41209412 2.12025452 C41.29209412 2.12025452 20.17209412 2.12025452 -1.58790588 2.12025452 C-1.58790588 9.05025452 -1.58790588 15.98025452 -1.58790588 23.12025452 C-2.24790588 23.12025452 -2.90790588 23.12025452 -3.58790588 23.12025452 C-3.616781 19.47443765 -3.63466173 15.82864988 -3.65040588 12.18275452 C-3.65878479 11.14183655 -3.6671637 10.10091858 -3.67579651 9.02845764 C-3.68063049 7.54442444 -3.68063049 7.54442444 -3.68556213 6.03041077 C-3.69079895 5.1139679 -3.69603577 4.19752502 -3.70143127 3.25331116 C-3.53322039 0.09275521 -3.18428029 0.14796677 0 0 Z " fill="#378DBB" transform="translate(57.58790588378906,156.87974548339844)"/>
<path d="M0 0 C17.03013413 -0.09388151 34.06018628 -0.16419203 51.09052086 -0.20724869 C58.99988892 -0.22778144 66.90909522 -0.25572175 74.81835938 -0.30175781 C81.72058217 -0.34191285 88.62268768 -0.36750009 95.52502406 -0.37635398 C99.17209771 -0.38152084 102.81883617 -0.39346466 106.46580124 -0.42292023 C124.22537854 -0.56075213 140.1123244 0.21183373 157 6 C157 6.33 157 6.66 157 7 C156.01 6.855625 155.02 6.71125 154 6.5625 C150.00590535 5.99074821 146.00467063 5.49180166 142 5 C142 4.34 142 3.68 142 3 C140.906875 3.020625 139.81375 3.04125 138.6875 3.0625 C135 3 135 3 132 2 C130.21146694 1.89796611 128.41940756 1.85369027 126.62800598 1.84178162 C124.95581749 1.82709839 124.95581749 1.82709839 123.24984741 1.81211853 C122.02633575 1.80636307 120.8028241 1.8006076 119.54223633 1.79467773 C117.61037224 1.77982834 117.61037224 1.77982834 115.63948059 1.76467896 C112.10673292 1.73763501 108.57397191 1.71662269 105.04117799 1.69667697 C101.34958603 1.67481427 97.65803521 1.64742697 93.96647644 1.62062073 C86.97548691 1.57069768 79.98447454 1.52575741 72.99344033 1.48259836 C65.03460753 1.43322267 57.075816 1.37830577 49.11702311 1.32291877 C32.74472012 1.20910468 16.37237929 1.10226439 0 1 C0 0.67 0 0.34 0 0 Z " fill="#4F96C0" transform="translate(1,106)"/>
<path d="M0 0 C17.82 0 35.64 0 54 0 C52.05372161 4.86569598 50.07915761 7.86744637 47 12 C46.505 10.515 46.505 10.515 46 9 C46.66 8.34 47.32 7.68 48 7 C48.64767793 4.42938689 48.64767793 4.42938689 49 2 C47.2531189 2.05329468 47.2531189 2.05329468 45.47094727 2.10766602 C41.11564936 2.23886116 36.76014811 2.36172358 32.40454102 2.48217773 C30.52589553 2.53527235 28.64731093 2.5905723 26.76879883 2.64819336 C24.05563486 2.73102157 21.3423448 2.80569582 18.62890625 2.87890625 C17.38615685 2.91945885 17.38615685 2.91945885 16.11830139 2.96083069 C10.64562002 3.09828056 5.43008771 2.70703027 0 2 C0 1.34 0 0.68 0 0 Z " fill="#4899C5" transform="translate(56,180)"/>
<path d="M0 0 C0.33 1.32 0.66 2.64 1 4 C0.34 4 -0.32 4 -1 4 C-1.33 5.98 -1.66 7.96 -2 10 C-2.66 10 -3.32 10 -4 10 C-4.2475 10.9075 -4.495 11.815 -4.75 12.75 C-6.07577985 16.19702761 -7.39793746 17.47678784 -10 20 C-10.515625 21.051875 -11.03125 22.10375 -11.5625 23.1875 C-13 26 -13 26 -16 27 C-17.70586575 28.62652316 -19.3777546 30.29006566 -21 32 C-19.60939922 29.06827374 -18.01563877 26.4378372 -16.171875 23.76953125 C-15.61886719 22.96580078 -15.06585938 22.16207031 -14.49609375 21.33398438 C-13.91988281 20.50189453 -13.34367187 19.66980469 -12.75 18.8125 C-11.61924453 17.17355443 -10.48903408 15.53423271 -9.359375 13.89453125 C-8.52889648 12.68917725 -8.52889648 12.68917725 -7.68164062 11.45947266 C-5.08587924 7.66305858 -2.53904174 3.83450649 0 0 Z " fill="#4196C2" transform="translate(54,266)"/>
<path d="M0 0 C4.23826419 3.88255273 7.1183057 7.98058285 10 12.9375 C10.43352783 13.6787915 10.86705566 14.42008301 11.3137207 15.18383789 C15.06691915 21.7827829 18.20542943 28.59331782 20 36 C19.67 36.66 19.34 37.32 19 38 C16.84478635 33.84351653 14.87805305 29.76492877 13.25 25.375 C11.50430053 20.89599418 9.32117435 16.78722883 6.9375 12.625 C6.59686523 12.02993652 6.25623047 11.43487305 5.90527344 10.82177734 C4.46319832 8.3483447 2.99140261 5.98872915 1.25390625 3.7109375 C0 2 0 2 0 0 Z " fill="#4A97BE" transform="translate(202,144)"/>
<path d="M0 0 C9.15872847 3.15355486 16.83580272 10.64991605 24 17 C23.01 17.33 22.02 17.66 21 18 C21 17.34 21 16.68 21 16 C20.443125 15.731875 19.88625 15.46375 19.3125 15.1875 C12.43835616 11.65753425 12.43835616 11.65753425 10 8 C7.81494871 7.20562077 7.81494871 7.20562077 5.375 6.8125 C4.14910156 6.57466797 4.14910156 6.57466797 2.8984375 6.33203125 C2.27195313 6.22246094 1.64546875 6.11289063 1 6 C0.67 4.02 0.34 2.04 0 0 Z " fill="#4595BF" transform="translate(172,119)"/>
<path d="M0 0 C0.99 0.33 1.98 0.66 3 1 C-0.96 6.94 -4.92 12.88 -9 19 C-10.47423176 16.05153648 -9.50199338 14.00066456 -8.671875 10.91015625 C-7.87155773 8.63483564 -7.01695556 7.34463704 -5 6 C-4.34 6 -3.68 6 -3 6 C-3 5.01 -3 4.02 -3 3 C-2.34 3 -1.68 3 -1 3 C-0.67 2.01 -0.34 1.02 0 0 Z " fill="#3993C5" transform="translate(194,54)"/>
<path d="M0 0 C0.66 0 1.32 0 2 0 C2.22638576 4.22840284 2.42794972 8.45763658 2.625 12.6875 C2.68945312 13.88568359 2.75390625 15.08386719 2.8203125 16.31835938 C2.871875 17.47529297 2.9234375 18.63222656 2.9765625 19.82421875 C3.02893066 20.88729248 3.08129883 21.95036621 3.13525391 23.0456543 C2.99408472 26.12920727 2.31336415 28.22759138 1 31 C0.34 30.34 -0.32 29.68 -1 29 C-0.79816123 27.13033563 -0.58264797 25.26110581 -0.29736328 23.40234375 C0.25361151 18.95111882 0.10264998 14.47826689 0.0625 10 C0.05798828 9.03449219 0.05347656 8.06898438 0.04882812 7.07421875 C0.03715417 4.71607911 0.02078021 2.35807398 0 0 Z " fill="#3F96C4" transform="translate(163,196)"/>
<path d="M0 0 C-2.37413326 0.9605272 -4.74925519 1.91847353 -7.125 2.875 C-7.79015625 3.14441406 -8.4553125 3.41382813 -9.140625 3.69140625 C-20.6434508 8.31509113 -20.6434508 8.31509113 -26 8 C-22.74551903 5.83034602 -19.4746415 4.63856738 -15.8125 3.375 C-15.15830078 3.14554687 -14.50410156 2.91609375 -13.83007812 2.6796875 C-12.22135865 2.11604856 -10.61085023 1.55752016 -9 1 C-9 0.67 -9 0.34 -9 0 C-5.5657338 -0.85856655 -3.38317487 -0.97591583 0 0 Z " fill="#4595C1" transform="translate(170,301)"/>
<path d="M0 0 C0.66 0.33 1.32 0.66 2 1 C0.42240425 3.42058585 -1.16176093 5.83641198 -2.75 8.25 C-3.1934375 8.93191406 -3.636875 9.61382812 -4.09375 10.31640625 C-6.46539966 13.90875794 -8.78701214 17.08729138 -12 20 C-11.33989524 17.15449988 -10.48275034 14.47674001 -9.4375 11.75 C-9.16808594 11.04359375 -8.89867188 10.3371875 -8.62109375 9.609375 C-8.41613281 9.07828125 -8.21117188 8.5471875 -8 8 C-7.01 8 -6.02 8 -5 8 C-5 7.34 -5 6.68 -5 6 C-4.34 6 -3.68 6 -3 6 C-2.690625 5.195625 -2.38125 4.39125 -2.0625 3.5625 C-1 1 -1 1 0 0 Z " fill="#3C94C0" transform="translate(96,199)"/>
<path d="M0 0 C-14.82624309 8.38922652 -14.82624309 8.38922652 -23 8 C-21.68 7.67 -20.36 7.34 -19 7 C-19 6.34 -19 5.68 -19 5 C-17.35 5 -15.7 5 -14 5 C-14 4.34 -14 3.68 -14 3 C-11.36 2.67 -8.72 2.34 -6 2 C-6 1.34 -6 0.68 -6 0 C-3.50907189 -1.24546405 -2.58919267 -0.7767578 0 0 Z " fill="#DAF6FC" transform="translate(143,250)"/>
<path d="M0 0 C8.09044745 -0.52196435 13.8142186 1.4071093 21 5 C21 5.66 21 6.32 21 7 C22.32 7.33 23.64 7.66 25 8 C25 8.66 25 9.32 25 10 C22.00938328 8.87851873 19.23530513 7.58698255 16.4375 6.0625 C11.24230888 3.40008919 5.66992264 2.24738298 0 1 C0 0.67 0 0.34 0 0 Z " fill="#4B98C1" transform="translate(120,159)"/>
<path d="M0 0 C1.875 0.1875 1.875 0.1875 4 1 C5.25 3.5625 5.25 3.5625 6 6 C6.66 6 7.32 6 8 6 C11.49602186 11.50623443 13.7013076 15.40770855 13 22 C12.73960937 21.47277344 12.47921875 20.94554687 12.2109375 20.40234375 C10.71623379 17.43704445 9.17889236 14.49725304 7.625 11.5625 C7.03976563 10.45003906 6.45453125 9.33757812 5.8515625 8.19140625 C4.11639759 5.20062623 2.23336557 2.63182947 0 0 Z " fill="#4295BE" transform="translate(150,174)"/>
<path d="M0 0 C0.66 0.33 1.32 0.66 2 1 C-1.90190118 5.57464276 -6.35771689 8.00908309 -11.671875 10.765625 C-13.89769113 11.79985895 -13.89769113 11.79985895 -15 13 C-16.66617115 13.04063832 -18.33388095 13.042721 -20 13 C-17.85015157 11.56676771 -15.71752804 10.21638017 -13.49609375 8.90625 C-12.83802734 8.51566406 -12.17996094 8.12507813 -11.50195312 7.72265625 C-10.12275807 6.90583874 -8.74254338 6.0907405 -7.36132812 5.27734375 C-3.44657268 2.95075408 -3.44657268 2.95075408 0 0 Z " fill="#DAF5FC" transform="translate(185,290)"/>
<path d="M0 0 C8.87005023 0.31964145 16.62538885 2.09590097 25 5 C25 5.33 25 5.66 25 6 C24.01 5.855625 23.02 5.71125 22 5.5625 C18.00590535 4.99074821 14.00467063 4.49180166 10 4 C10 3.34 10 2.68 10 2 C8.3603125 2.061875 8.3603125 2.061875 6.6875 2.125 C3 2 3 2 0 0 Z " fill="#3D91C0" transform="translate(133,107)"/>
<path d="M0 0 C0.66 0 1.32 0 2 0 C0.55797524 4.15151338 -1.5010438 7.29978445 -4.125 10.8125 C-5.21167969 12.27623047 -5.21167969 12.27623047 -6.3203125 13.76953125 C-6.87460938 14.50558594 -7.42890625 15.24164063 -8 16 C-8.33 15.34 -8.66 14.68 -9 14 C-8.00390625 11.6171875 -8.00390625 11.6171875 -6.5625 8.875 C-5.85287109 7.50988281 -5.85287109 7.50988281 -5.12890625 6.1171875 C-4.75636719 5.41851562 -4.38382813 4.71984375 -4 4 C-3.34 4 -2.68 4 -2 4 C-1.34 2.68 -0.68 1.36 0 0 Z " fill="#3B95C3" transform="translate(206,37)"/>
<path d="M0 0 C0.99 0.66 1.98 1.32 3 2 C1.92734574 3.94343258 0.84143808 5.87955399 -0.25 7.8125 C-0.85328125 8.89144531 -1.4565625 9.97039062 -2.078125 11.08203125 C-3.86936543 13.80165849 -5.27758474 15.28343286 -8 17 C-7.49396008 14.83125748 -7.00016187 13.00032373 -6 11 C-5.34 11 -4.68 11 -4 11 C-2.50859979 7.37802806 -1.2125738 3.72433382 0 0 Z " fill="#4394BF" transform="translate(211,255)"/>
<path d="M0 0 C1 2 1 2 0.4375 4.6875 C-1.32242363 8.74297618 -3.62993498 12.10157258 -7 15 C-7.99 15 -8.98 15 -10 15 C-5.05 7.575 -5.05 7.575 0 0 Z " fill="#DAF3FA" transform="translate(89,212)"/>
<path d="M0 0 C0.6171875 1.83984375 0.6171875 1.83984375 1 4 C-0.875 6.5625 -0.875 6.5625 -3 9 C-3.33 9.99 -3.66 10.98 -4 12 C-5.95597184 13.39712274 -7.95436401 14.73779907 -10 16 C-10.66 15.67 -11.32 15.34 -12 15 C-11.32904297 14.38125 -11.32904297 14.38125 -10.64453125 13.75 C-6.25326061 9.55535342 -2.97928993 5.28583698 0 0 Z " fill="#4595BF" transform="translate(158,232)"/>
<path d="M0 0 C0.99 0 1.98 0 3 0 C1.40956621 5.08938811 -1.7446951 8.87456643 -5 13 C-5.671875 11.296875 -5.671875 11.296875 -6 9 C-4.890625 6.640625 -4.890625 6.640625 -3.25 4.25 C-2.71890625 3.45078125 -2.1878125 2.6515625 -1.640625 1.828125 C-1.09921875 1.22484375 -0.5578125 0.6215625 0 0 Z " fill="#E1F9FD" transform="translate(28,299)"/>
<path d="M0 0 C0.66 0.33 1.32 0.66 2 1 C-0.36797991 3.61724095 -2.89600354 5.32861729 -6 7 C-6.66 7 -7.32 7 -8 7 C-8 7.66 -8 8.32 -8 9 C-10.64 9 -13.28 9 -16 9 C-15.45730469 8.73316406 -14.91460937 8.46632813 -14.35546875 8.19140625 C-11.64699241 6.82144724 -8.97942028 5.38668098 -6.3125 3.9375 C-4.85263672 3.14666016 -4.85263672 3.14666016 -3.36328125 2.33984375 C-1.11512031 1.20391534 -1.11512031 1.20391534 0 0 Z " fill="#499CC3" transform="translate(144,248)"/>
<path d="M0 0 C0.33 0.99 0.66 1.98 1 3 C-1.16888758 6.73440042 -3.75500739 9.59402415 -7.875 10.9375 C-8.57625 10.958125 -9.2775 10.97875 -10 11 C-6.83451967 7.11098131 -3.59634744 3.49359465 0 0 Z " fill="#D8F4F9" transform="translate(197,279)"/>
<path d="M0 0 C2.9719385 1.12451727 5.33440687 2.22293791 8 4 C7.67 4.99 7.34 5.98 7 7 C4.03 6.505 4.03 6.505 1 6 C0.67 4.02 0.34 2.04 0 0 Z " fill="#3994C6" transform="translate(172,119)"/>
<path d="M0 0 C4.12989477 4.26311718 4.61271765 7.28758534 5 13 C4.01 13 3.02 13 2 13 C2 10.03 2 7.06 2 4 C1.34 4 0.68 4 0 4 C0 2.68 0 1.36 0 0 Z " fill="#3E94C6" transform="translate(219,179)"/>
<path d="M0 0 C0.33 0 0.66 0 1 0 C1.78774617 8.03501094 1.78774617 8.03501094 -1.5 12.0625 C-2.325 12.701875 -3.15 13.34125 -4 14 C-3.52188823 12.22888156 -3.0424722 10.45811517 -2.5625 8.6875 C-2.29566406 7.70136719 -2.02882812 6.71523437 -1.75390625 5.69921875 C-1.21920575 3.78482474 -0.62855462 1.88566385 0 0 Z " fill="#D6F3FA" transform="translate(221,237)"/>
<path d="M0 0 C0.66 0 1.32 0 2 0 C1.57405412 1.44096586 1.13373367 2.87768712 0.6875 4.3125 C0.44386719 5.11300781 0.20023438 5.91351563 -0.05078125 6.73828125 C-1.04182023 9.09964573 -2.08074943 10.33879993 -4 12 C-4.36836955 7.70235528 -3.39180503 5.53987145 -1 2 C-0.67 1.34 -0.34 0.68 0 0 Z " fill="#DAF7FC" transform="translate(160,223)"/>
<path d="M0 0 C0.66 1.32 1.32 2.64 2 4 C0.71034824 5.37562854 -0.62689293 6.70766393 -2 8 C-2.66 8 -3.32 8 -4 8 C-4 8.66 -4 9.32 -4 10 C-4.66 9.67 -5.32 9.34 -6 9 C-4.02 6.03 -2.04 3.06 0 0 Z " fill="#D9F3FB" transform="translate(99,197)"/>
<path d="M0 0 C0.66 0.33 1.32 0.66 2 1 C0.3790787 2.17232685 -1.24686833 3.3377077 -2.875 4.5 C-3.77992188 5.1496875 -4.68484375 5.799375 -5.6171875 6.46875 C-8 8 -8 8 -10 8 C-9.3125 6.125 -9.3125 6.125 -8 4 C-5.5625 2.875 -5.5625 2.875 -3 2 C-2.01 1.34 -1.02 0.68 0 0 Z " fill="#4696C0" transform="translate(180,292)"/>
<path d="M0 0 C1.32 0 2.64 0 4 0 C4 0.99 4 1.98 4 3 C5.32 3 6.64 3 8 3 C8 3.99 8 4.98 8 6 C8.66 6 9.32 6 10 6 C9.67 6.99 9.34 7.98 9 9 C7.49704815 7.69088122 5.99770689 6.37761608 4.5 5.0625 C3.6646875 4.33160156 2.829375 3.60070312 1.96875 2.84765625 C1.3190625 2.23792969 0.669375 1.62820312 0 1 C0 0.67 0 0.34 0 0 Z " fill="#D7F3FB" transform="translate(188,129)"/>
<path d="M0 0 C0.99 0.33 1.98 0.66 3 1 C0.69 4.3 -1.62 7.6 -4 11 C-5 8 -5 8 -4.00390625 5.95703125 C-3.52824219 5.24933594 -3.05257812 4.54164063 -2.5625 3.8125 C-2.08941406 3.09707031 -1.61632813 2.38164062 -1.12890625 1.64453125 C-0.75636719 1.10183594 -0.38382813 0.55914062 0 0 Z " fill="#D5F4FC" transform="translate(49,270)"/>
<path d="M0 0 C0.66 0 1.32 0 2 0 C0.54955729 4.10958767 -1.51110752 7.43258745 -4 11 C-5.24546405 8.50907189 -4.7767578 7.58919267 -4 5 C-3.34 5 -2.68 5 -2 5 C-2 4.34 -2 3.68 -2 3 C-1.34 3 -0.68 3 0 3 C0 2.01 0 1.02 0 0 Z " fill="#4493BA" transform="translate(213,26)"/>
<path d="M0 0 C0.99 0 1.98 0 3 0 C1.73058503 3.91402949 0.48832306 5.79072873 -3 8 C-2.67 6.68 -2.34 5.36 -2 4 C-1.34 4 -0.68 4 0 4 C-0.33 3.01 -0.66 2.02 -1 1 C-0.67 0.67 -0.34 0.34 0 0 Z " fill="#D8F5FD" transform="translate(153,235)"/>
<path d="M0 0 C0.66 0 1.32 0 2 0 C0.68775452 3.93673644 -0.91910327 6.22719294 -4 9 C-2.80100302 5.9168649 -1.52299523 2.93720508 0 0 Z " fill="#4092BA" transform="translate(201,44)"/>
</svg>
